<svg xmlns="http://www.w3.org/2000/svg" width="716" height="1128" viewBox="0 0 716 1128"><defs><linearGradient id="i07ra" x1="206.99" x2="702.43" y1="390.13" y2="390.13" gradientUnits="userSpaceOnUse"><stop offset="0" stop-color="#d14727"/><stop offset="1" stop-color="#9a3921"/></linearGradient><linearGradient id="i07rb" x1="245.14" x2="245.14" y1="988.76" y2="773.72" gradientUnits="userSpaceOnUse"><stop offset="0" stop-color="#2b2b2b"/><stop offset="1" stop-color="#8b8b8b"/></linearGradient></defs><g><g><g><g><g><path fill="#fff" d="M16.698 599.585H8.904V535.09h7.794c9.148 0 12.313 6.706 12.313 15.244v34.14c0 8.538-3.165 15.122-12.313 15.122zm-11.214-67.78v71.2h11.214c11.59 0 15.732-8.05 15.732-18.53v-34.14c0-10.482-4.152-18.53-15.732-18.53zM3.408 605.08v-75.475h14.145c12.435 0 16.942 8.904 16.942 20.118v35.361c0 11.458-4.385 19.996-16.942 19.996zm14.145-78.773H0v82.181h17.553c15 0 20.362-10.114 20.362-23.404v-35.361c0-13.168-5.485-23.405-20.362-23.405z"/></g><g><path fill="#fff" d="M77.295 585.585c0 7.927-2.553 14.755-11.091 14.755-8.405 0-11.336-7.317-11.336-15.122v-35.605c0-7.683 3.042-15.122 11.336-15.122 8.527 0 11.091 7.439 11.091 15.244zm-25.724-.367c0 9.626 3.664 18.408 14.633 18.408 10.98 0 14.511-8.282 14.511-18.041v-35.85c0-9.626-3.42-18.653-14.511-18.653-10.736 0-14.633 9.26-14.633 18.53zm-2.198-36.705c0-10.603 5.24-19.873 16.82-19.873 11.702 0 16.698 9.27 16.698 19.873v37.671c0 11.214-4.63 19.752-16.698 19.752-11.824 0-16.82-8.782-16.82-19.752zm36.949 0c0-12.446-6.096-23.048-20.118-23.048-13.9 0-20.24 10.614-20.24 23.048v37.671c0 12.924 6.095 23.049 20.24 23.049 14.389 0 20.118-9.881 20.118-23.049z"/></g><g><path fill="#fff" d="M97.291 605.092h-2.32v-75.475h1.954l27.556 68.525v-68.525h2.076v75.475h-1.832c-9.27-22.805-18.163-45.598-27.434-68.525zm-5.607 3.408h8.904v-54.38c11.836 29.388 17.198 42.922 21.95 54.38h7.439v-82.18h-8.904v54.38l-21.95-54.38h-7.439z"/></g><g><path fill="#fff" d="M143.622 538.277h-2.199v-8.66h2.199zm3.42 3.408V526.32h-8.905v15.366z"/></g><g><path fill="#fff" d="M153.736 531.804v-2.198h29.51v2.198h-13.655v73.277h-2.32v-73.277zm19.14 76.574v-73.276h13.657v-8.905h-36.216v8.905h13.656v73.276z"/></g><g><path fill="#fff" d="M220.795 603.016h18.652v2.076h-20.85v-75.475h2.198zm-5.484-76.697V608.5h27.434v-8.904h-18.652v-73.277z"/></g><g><path fill="#fff" d="M253.592 529.606h26.091v2.198h-24.015v34.751h16.099v2.076h-16.099v34.373h24.015v2.077h-26.09zm21.461 33.552h-16.098v-28.045h24.136v-8.782h-32.918v82.18h32.918v-8.904h-24.136v-27.556h16.098z"/></g><g><path fill="#fff" d="M316.255 576.192h-11.702l5.85-26.09zm-15.966 3.286h20.24l-10.125-44.254zm20.74 2.199h-21.217l-5.24 23.404h-2.321l17.309-75.475h1.71l17.186 75.475h-2.198zm-14.167-55.358L288.088 608.5h9.148l5.485-23.526h15.61l5.118 23.526h9.148l-18.652-82.18z"/></g><g><path fill="#fff" d="M329.777 529.617l16.221 70.223 15.855-70.223h2.32l-17.309 75.475h-1.832l-17.553-75.475zm19.774 78.761l18.774-82.18h-9.148l-13.168 58.52-13.534-58.52h-9.27l19.14 82.18z"/></g><g><path fill="#fff" d="M377.585 529.606h26.09v2.198h-24.014v34.751h16.099v2.076H379.66v34.373h24.015v2.077h-26.091zm21.461 33.552h-16.099v-28.045h24.137v-8.782h-32.919v82.18h32.92v-8.904h-24.138v-27.556h16.099z"/></g><g><path fill="#fff" d="M446.22 548.513c0-11.091 5.119-19.629 16.943-19.629 11.957 0 16.587 8.538 16.587 22.072h-2.198c0-10.114-2.076-19.996-14.389-19.996-10.37 0-14.755 8.283-14.755 17.553v37.671c0 9.26 4.274 17.553 14.633 17.553 12.313 0 14.51-10.003 14.51-19.995h2.2c0 11.713-2.92 22.194-16.7 22.194-11.834 0-16.83-8.66-16.83-19.752zm27.923 31.82c0 11.458-1.465 20.118-11.091 20.118-8.038 0-11.214-6.706-11.214-14.267v-37.67c0-7.561 3.287-14.145 11.336-14.145 10.48 0 10.97 9.87 10.97 19.995h9.026c0-18.896-3.653-28.9-19.996-28.9-14.145 0-20.362 10.004-20.362 23.05v37.67c0 13.057 6.095 23.049 20.24 23.049 18.286 0 20.118-13.534 20.118-28.9z"/></g><g><path fill="#fff" d="M506.696 563.147h-7.072v-27.923h8.171c9.137 0 10.847 5.729 10.847 14.144 0 9.27-2.31 13.779-11.946 13.779zm1.099-31.232h-11.458v34.629h10.359c12.313 0 15.366-5.607 15.366-17.187 0-10.358-2.32-17.43-14.267-17.43zm16.088 73.177h-2.32v-22.194c0-9.881-3.298-14.145-13.535-14.145h-11.702v36.339h-2.32v-75.475h14.266c12.924 0 15.977 8.171 15.977 19.751 0 7.317-1.221 15.843-9.27 18.286 7.316 1.71 8.904 8.416 8.904 14.877zm-33.164-78.773V608.5h8.905v-36.338h8.415c7.672 0 10.237 3.164 10.237 10.725v25.602h8.904V582.52c0-5.484-1.343-11.59-5.118-15.121 4.507-4.508 5.606-11.824 5.606-18.042 0-13.645-3.652-23.038-19.384-23.038z"/></g><g><path fill="#fff" d="M537.15 587.65v-58.033h2.076v57.422c0 9.504 4.641 16.698 14.633 16.698 10.126 0 14.756-7.183 14.756-16.698v-57.422h2.198v58.033c0 10.725-5.851 18.163-16.943 18.163-11.091 0-16.698-7.438-16.698-18.163zm37.093-61.453h-9.026v60.842c0 7.56-3.53 13.29-11.335 13.29-7.683 0-11.214-5.73-11.214-13.29v-60.842h-9.026v61.453c.122 12.801 6.95 21.583 20.24 21.583 13.411 0 20.361-8.782 20.361-21.583z"/></g><g><path fill="#fff" d="M603.265 605.08l-16.698-65.104v65.105h-2.198v-75.475h1.954l17.797 69.857 17.92-69.857h2.076v75.475h-2.32v-65.228l-16.465 65.228zm-14.4-78.76h-7.915v82.18h9.026v-41.823L600.7 608.5h7.194l10.603-42.434V608.5h8.904v-82.18h-7.927l-15.366 59.498-15.243-59.498z"/></g><g><path fill="#fff" d="M651.05 599.596h-7.804V572.04h6.95c8.893 0 11.824 5.24 11.824 13.778 0 8.293-2.31 13.778-10.97 13.778zm-7.804-36.45v-28.044h5.118c8.782 0 12.435 5.362 12.435 13.9 0 8.171-3.042 14.145-11.58 14.145zm-3.287 5.485v34.251h11.092c11.335 0 14.388-6.828 14.388-17.064 0-10.725-3.908-17.187-15.243-17.187zm8.405-36.838h-8.416v34.75h9.27c10.981 0 15-7.438 15-17.552 0-10.725-4.763-17.187-15.854-17.187zm3.053 73.299h-13.756v-75.475h10.48c12.802 0 18.287 6.828 18.287 19.385 0 7.927-2.199 15.233-10.126 18.286 8.771 1.832 11.458 10.358 11.458 18.53 0 11.458-3.786 19.263-16.343 19.263zm-17.076-78.773V608.5h17.076c15.122 0 19.751-9.148 19.751-22.682 0-7.317-1.954-14.878-7.805-19.019 5.119-4.263 6.462-10.847 6.462-17.797 0-14.633-6.462-22.683-21.705-22.683z"/></g><g><path fill="#fff" d="M678.352 583.853h2.32c0 8.293 1.466 19.873 13.534 19.873 9.393 0 14.023-5.606 14.023-14.877 0-6.828-7.195-14.633-12.924-19.385h.122c-7.56-5.485-16.22-14.011-16.22-23.893 0-9.381 5.85-16.82 15.61-16.82 12.19 0 14.755 8.416 14.755 21.095h-2.076c-.122-8.416-.855-18.897-12.68-18.897-8.903 0-13.533 6.95-13.533 15.244 0 16.587 29.144 24.759 29.144 42.556 0 10.847-5.252 17.064-16.22 17.064-12.325 0-15.855-8.537-15.855-21.95zm19.507-19.496c-6.584-5.851-13.168-11.458-13.168-18.164 0-6.462 3.42-11.824 10.126-11.824 8.66 0 9.27 9.26 9.27 18.774h8.905c0-15.366-1.7-27.678-18.164-27.678-11.824 0-19.019 8.782-19.019 20.117 0 11.214 9.382 20.729 17.553 26.58l-.122-.122c5.119 4.263 11.58 10.358 11.58 16.82 0 7.072-3.53 11.458-10.603 11.458-9.026 0-10.247-8.538-10.247-19.874h-8.905c0 18.786 3.897 28.778 19.141 28.778 13.168 0 19.507-7.56 19.507-20.484 0-10.115-7.927-17.431-15.854-24.503z"/></g></g><g><g><path fill="#fff" d="M44.954 208.321v7.928h-19.84v8.204h17.841v7.583H25.114v8.272h20.473v7.872H16.22v-39.858h28.733z"/></g><g><path fill="#fff" d="M84.234 208.321h8.894v39.859h-8.894L65.25 223.21v24.97h-8.893V208.32h8.327l19.551 25.658z"/></g><g><path fill="#fff" d="M107.272 215.96v-7.639h20.75v26.003c0 4.751-1.22 8.304-3.674 10.658-2.454 2.354-5.596 3.53-9.437 3.53-4.785 0-8.971-1.842-12.546-5.528l4.619-6.384c2.398 2.586 4.907 3.874 7.527 3.874 1.255 0 2.332-.488 3.22-1.454.888-.966 1.343-2.42 1.343-4.363V215.96z"/></g><g><path fill="#fff" d="M167.414 237.088c-2.276 2.487-5.073 3.73-8.404 3.73-3.32 0-6.129-1.243-8.405-3.73-2.276-2.498-3.42-5.518-3.42-9.07 0-3.554 1.144-6.584 3.42-9.094 2.276-2.509 5.074-3.763 8.405-3.763 3.32 0 6.128 1.254 8.404 3.763 2.276 2.51 3.42 5.54 3.42 9.093s-1.132 6.573-3.42 9.071zm12.48-9.093c0-5.85-2.01-10.747-6.04-14.677-4.03-3.942-8.982-5.907-14.877-5.907-5.885 0-10.848 1.976-14.878 5.907-4.03 3.93-6.04 8.826-6.04 14.677 0 5.851 2.01 10.747 6.04 14.678 4.03 3.93 8.982 5.895 14.878 5.895 5.884 0 10.847-1.965 14.877-5.895 4.03-3.942 6.05-8.827 6.04-14.678z"/></g><g><path fill="#fff" d="M206.018 248.168h-8.893v-15.732l-13.8-24.114h9.636l8.605 14.821 8.604-14.821h9.637l-13.8 24.114v15.732z"/></g><g><path fill="#fff" d="M257.267 231.237l7.072-22.916h9.293l7.017 22.916 7.927-22.916h9.637l-13.911 39.859h-6.617l-8.727-27.712-8.671 27.712h-6.617l-13.912-39.859h9.637z"/></g><g><path fill="#fff" d="M330.532 208.321h8.894v39.859h-8.894v-15.677h-15.854v15.677h-8.893V208.32h8.893v16.654h15.854z"/></g><g><path fill="#fff" d="M373.41 231.748h-9.98l5.018-11.569zm16.52 16.42l-17.22-39.858h-8.604l-17.22 39.858h9.46l3.708-8.604h16.71l3.708 8.604z"/></g><g><path fill="#fff" d="M411.38 216.016v32.152h-8.892v-32.152h-11.291v-7.694h31.475v7.694z"/></g><g><path fill="#fff" d="M467.082 248.168h-8.893v-15.732l-13.8-24.114h9.637l8.604 14.821 8.605-14.821h9.636l-13.8 24.114v15.732z"/></g><g><path fill="#fff" d="M513.657 237.088c-2.276 2.487-5.074 3.73-8.404 3.73-3.331 0-6.14-1.243-8.416-3.73-2.276-2.498-3.42-5.518-3.42-9.07 0-3.554 1.144-6.584 3.42-9.094 2.287-2.509 5.085-3.763 8.416-3.763 3.32 0 6.128 1.254 8.404 3.763 2.276 2.51 3.42 5.54 3.42 9.093s-1.144 6.573-3.42 9.071zm12.48-9.093c0-5.85-2.01-10.747-6.04-14.677-4.03-3.942-8.993-5.907-14.878-5.907-5.884 0-10.847 1.976-14.877 5.907-4.03 3.93-6.04 8.826-6.04 14.677 0 5.851 2.01 10.747 6.04 14.678 4.03 3.93 8.993 5.895 14.877 5.895 5.885 0 10.847-1.965 14.878-5.895 4.03-3.942 6.05-8.827 6.04-14.678z"/></g><g><path fill="#fff" d="M547.065 237.876c1.487 1.843 3.475 2.765 5.984 2.765s4.496-.922 5.962-2.765c1.465-1.843 2.198-4.363 2.198-7.55v-22.004h8.893v22.293c0 5.774-1.598 10.215-4.785 13.312-3.197 3.098-7.283 4.652-12.257 4.652-4.985 0-9.07-1.554-12.29-4.674-3.21-3.12-4.819-7.539-4.819-13.279v-22.293h8.893v22.005c0 3.175.744 5.695 2.22 7.538z"/></g><g><path fill="#fff" d="M624.005 237.221c-2.187 2.054-5.307 3.076-9.382 3.076h-5.64V216.07h4.963c4.519 0 7.872 1.055 10.059 3.164 2.187 2.11 3.275 5.119 3.275 9.038 0 3.908-1.088 6.894-3.275 8.948zm6.528-23.681c-3.797-3.486-9.26-5.218-16.365-5.218H600.09v39.858h13.623c7.605 0 13.256-1.81 16.965-5.418 3.708-3.609 5.562-8.516 5.562-14.711s-1.91-11.036-5.707-14.511z"/></g><g><path fill="#fff" d="M673.866 237.088c-2.276 2.487-5.073 3.73-8.404 3.73-3.331 0-6.14-1.243-8.416-3.73-2.276-2.498-3.42-5.518-3.42-9.07 0-3.554 1.144-6.584 3.42-9.094 2.287-2.509 5.085-3.763 8.416-3.763 3.32 0 6.128 1.254 8.404 3.763 2.276 2.51 3.42 5.54 3.42 9.093s-1.144 6.573-3.42 9.071zm12.48-9.093c0-5.85-2.01-10.747-6.04-14.677-4.03-3.942-8.993-5.907-14.878-5.907-5.884 0-10.847 1.976-14.877 5.907-4.03 3.93-6.04 8.826-6.04 14.677 0 5.851 2.01 10.747 6.04 14.678 4.03 3.93 8.993 5.895 14.877 5.895 5.885 0 10.848-1.965 14.878-5.895 4.03-3.942 6.04-8.827 6.04-14.678z"/></g><g><path fill="#fff" d="M700.779 248.624c1.41 0 2.598-.489 3.564-1.455.966-.966 1.454-2.154 1.454-3.564 0-1.41-.488-2.598-1.454-3.564-.966-.966-2.154-1.454-3.564-1.454-1.41 0-2.598.488-3.564 1.454-.966.966-1.455 2.154-1.455 3.564 0 1.41.489 2.598 1.455 3.564.966.977 2.154 1.455 3.564 1.455zm-5.019-40.303v7.073l1.655 20.528h6.728l1.71-20.528v-7.073z"/></g></g><g><g><g><path fill="#fff" d="M19.829 383.963c-.9.733-1.344 1.71-1.344 2.931 0 1.21.544 2.176 1.644 2.898 1.099.722 3.619 1.565 7.583 2.542 3.963.977 7.039 2.443 9.226 4.397 2.187 1.954 3.286 4.796 3.286 8.549 0 3.753-1.399 6.784-4.208 9.115-2.809 2.332-6.506 3.497-11.08 3.497-6.617 0-12.568-2.453-17.864-7.35l5.551-6.805c4.497 3.941 8.66 5.917 12.49 5.917 1.71 0 3.054-.366 4.03-1.11.978-.733 1.466-1.732 1.466-2.986 0-1.255-.521-2.254-1.554-2.987-1.033-.733-3.086-1.488-6.15-2.243-4.864-1.154-8.416-2.653-10.67-4.507-2.254-1.854-3.375-4.763-3.375-8.727 0-3.963 1.42-7.017 4.274-9.17 2.842-2.154 6.406-3.231 10.67-3.231 2.786 0 5.573.477 8.36 1.432 2.786.955 5.218 2.31 7.283 4.063l-4.719 6.806c-3.619-2.753-7.372-4.119-11.235-4.119-1.544-.011-2.765.355-3.664 1.088z"/></g><g><path fill="#fff" d="M77.096 375.636h9.326v41.768h-9.326v-16.432h-16.61v16.432h-9.315v-41.768h9.315v17.442h16.61z"/></g><g><path fill="#fff" d="M128.056 405.78c-2.398 2.62-5.33 3.919-8.815 3.919-3.487 0-6.429-1.31-8.816-3.92-2.387-2.609-3.586-5.784-3.586-9.503 0-3.72 1.2-6.895 3.586-9.526 2.387-2.631 5.33-3.942 8.816-3.942 3.486 0 6.428 1.31 8.815 3.942 2.387 2.62 3.586 5.806 3.586 9.526 0 3.73-1.188 6.894-3.586 9.504zm13.079-9.537c0-6.14-2.11-11.27-6.329-15.388-4.219-4.12-9.415-6.185-15.588-6.185s-11.369 2.054-15.587 6.185c-4.22 4.13-6.329 9.259-6.329 15.388 0 6.14 2.11 11.269 6.329 15.388 4.218 4.119 9.414 6.184 15.587 6.184s11.37-2.065 15.588-6.184c4.23-4.12 6.34-9.249 6.329-15.388z"/></g><g><path fill="#fff" d="M164.383 399.651l7.406-24.015h9.737l7.35 24.015 8.304-24.015h10.092l-14.577 41.768h-6.928l-9.138-29.033-9.081 29.033h-6.928l-14.578-41.768h10.092z"/></g></g><g><path fill="url(#i07ra)" d="M680.428 365.666c-1.92 0-9.437 4.197-18.164 19.563 4.541 0 18.697-13.623 19.041-18.341 0-.7-.355-1.222-.877-1.222zm19.04 12.58c1.566 0 2.965 1.931 2.976 3.097 0 1.055-.522 2.098-1.399 3.497-6.461 9.437-24.625 31.798-36.16 31.798-10.837 0-21.14-6.64-21.14-20.44 0-.155.011-.322.011-.477-5.162 7.072-10.969 13.756-15.388 13.756-10.492 0-14.155-7.339-14.155-20.618-9.438 10.303-19.397 30.399-30.577 30.399-5.063 0-13.278-6.806-13.278-15.022 0-1.354.088-2.709.244-4.063-5.04 5.695-10.548 10.525-14.744 10.525-6.462 0-12.224-4.186-13.101-12.402-.167-1.92-.167-4.196.177-6.817-.877 1.744-12.235 25.503-25.158 25.503-8.038 0-14.322-6.64-14.322-13.623.178-14.5 19.396-33.374 19.396-39.658 0-.688-.7-1.044-1.577-1.044-1.399 0-8.915-.177-16.598-.177-9.426 20.44-22.183 44.732-22.183 64.294 0 8.383 2.798 9.96 2.798 11.358 0 .7-.877 1.577-2.276 1.577-4.197 0-14.855-7.517-14.855-21.839 0-3.886.855-8.227 2.31-12.879-5.075 5.707-10.715 10.259-15.933 10.259-7.86 0-17.642-7.517-17.464-15.555.167-15.021 17.464-28.822 17.464-36.16 0-1.222-.7-1.744-2.62-1.744-3.497 0-16.42.7-16.42.7-9.427 20.273-22.183 44.732-22.183 64.294 0 8.383 2.797 9.96 2.797 11.358 0 .7-.877 1.577-2.276 1.577-4.196 0-14.855-7.517-14.855-21.839 0-4.252 1.022-9.06 2.731-14.222-3.208 3.375-6.34 5.84-8.67 5.84-7.872 0-12.236-8.904-12.236-12.924-2.62 0-13.8 23.416-24.103 23.416-5.418 0-13.279-3.675-13.279-16.599 0-.755.045-1.51.111-2.276-8.038 9.071-17.62 18.175-23.17 18.175-7.861 0-15.378-5.762-15.378-13.623 0-14.5 16.077-26.202 16.077-34.417 0-4.364-15.2-8.039-15.2-19.74 0-8.738 8.205-18.697 12.402-18.697 2.087 0 5.585 4.374 5.585 6.64 0 5.062-7.161 10.48-7.161 16.242 0 5.596 15.898 14.5 15.72 22.538-.177 8.727-12.234 19.74-12.234 30.743 0 1.743 1.054 2.62 2.098 2.62 3.964 0 19.807-18.141 28.056-28.2 8.804-13.312 24.78-24.56 40.602-24.56 5.074 0 9.437 5.075 9.437 7.517 0 2.443-4.197.877-11.535 4.02-17.298 7.338-31.976 33.018-31.976 39.48 0 1.055.522 1.576 1.222 1.576 4.196 0 22.882-24.103 27.778-30.92 2.276-3.32 4.197-5.762 6.118-5.762 3.663 0 6.983 4.019 6.983 7.516 0 7.517-8.738 14.678-8.738 17.997 0 1.222.522 1.744 1.222 1.744 4.23 0 14.178-12.824 20.05-20.662 3.498-6.862 7.306-13.878 10.881-20.74-3.142-2.265-5.062-5.762-5.062-7.16 0-1.222.521-1.744 1.398-1.744.7 0 2.62.877 7.517 1.577 5.762-11.18 10.48-21.661 11.358-29.877.166-1.577.7-2.276 1.743-2.276 1.221 0 6.117 1.92 6.117 11.702 0 5.596-2.62 12.923-6.117 21.14 10.136.699 17.298.52 20.617.52 3.675 0 6.118 3.665 6.118 6.984 0 11.88-14.511 30.232-14.855 43.156 0 2.964 1.576 3.841 2.975 3.841 4.386 0 20.151-19.03 26.901-27.9 3.376-6.629 7.04-13.368 10.481-19.974-3.142-2.265-5.063-5.762-5.063-7.16 0-1.222.522-1.744 1.4-1.744.699 0 2.62.877 7.516 1.577 5.762-11.18 10.48-21.661 11.358-29.877.166-1.577.7-2.276 1.743-2.276 1.221 0 6.117 1.92 6.117 11.702-.177 5.595-2.62 12.923-6.117 21.139 13.1 0 27.6 1.92 27.6 12.057 0 6.118-15.376 26.38-15.376 39.137 0 1.565.877 2.442 2.098 2.442 2.787 0 8.382-5.762 18.164-22.882 8.56-15.022 9.959-24.104 14.855-24.104 5.074 0 8.216 5.763 8.216 8.738 0 7.161-8.56 20.795-8.56 29.7 0 1.753 1.22 2.975 2.797 2.975 3.442 0 12.624-12.18 18.775-19.874 8.538-14.2 23.415-24.68 33.818-24.68 4.363 0 7.683 3.152 7.683 4.896 0 1.043-4.197 2.797-8.216 6.461-7.683 6.984-27.079 24.104-27.079 40.702 0 1.221.533 2.098 1.577 2.098 4.019 0 28.822-32.141 36.682-45.598 12.746-21.838 20.606-45.42 25.503-68.136.877-4.374 1.054-5.418 2.798-5.418 3.852 0 11.535 6.462 11.535 17.465 0 16.076-36.516 67.603-36.516 87.698 0 2.965.877 5.063 2.62 5.063 3.697 0 13.512-13.212 19.851-21.994 6.606-13.967 20.84-23.426 30.11-23.426 4.364 0 10.304 6.117 10.304 11.358-.167 11.357-12.924 24.114-22.183 24.114-2.099 0-5.596-1.92-5.596-1.92s-2.265 4.718-2.265 12.057c0 5.24 1.921 6.983 4.197 6.983 11.88 0 27.423-18.163 35.983-30.22.7-.878 1.055-1.4 1.577-1.4zm-232.341-42.623c0-2.798 2.964-4.896 5.94-4.896 2.975 0 5.94 2.975 5.94 5.762 0 2.975-2.799 4.718-5.241 4.718-3.497.012-6.64-2.264-6.64-5.584zM226.913 480.622c9.082 0 15.2-13.101 22.36-35.462-15.899 14.156-27.256 22.716-27.256 30.399 0 2.964 1.754 5.063 4.896 5.063zm83.324-111.458c0 .521-.522 1.92-1.044 2.953-12.579 22.538-26.38 39.824-39.302 53.28-5.763 46.476-23.404 62.375-43.5 62.375-11.014 0-19.396-6.64-19.396-15.722 0-12.401 22.716-24.114 48.218-45.598 2.62-8.737 5.418-18.174 8.738-28.478-7.517 10.304-14.844 19.74-23.06 19.74-5.418 0-12.757-4.718-12.757-13.622 0-20.095 26.901-46.997 49.262-46.997 4.019 0 8.038 4.541 7.86 6.984 0 2.442-2.264 1.398-7.16 2.797-15.2 4.541-35.64 31.276-35.64 41.057 0 1.4.7 2.099 1.921 2.099 2.443 0 9.781-7.683 22.183-25.68 6.284-9.26 13.1-14.5 14.322-14.5 1.221 0 3.497 1.754 3.497 3.497 0 1.921-8.204 4.719-12.923 38.26 11.88-11.88 23.226-26.38 32.664-44.2.877-1.565 1.398-2.442 2.276-2.442 1.043 0 3.841 2.798 3.841 4.197z"/></g></g><g><g><g><path fill="#fff" d="M12.534 873.684c-.721.6-1.088 1.387-1.088 2.364 0 .988.445 1.766 1.333 2.343.888.577 2.93 1.266 6.128 2.054 3.198.788 5.685 1.976 7.461 3.553 1.765 1.576 2.654 3.886 2.654 6.905 0 3.02-1.133 5.485-3.409 7.361-2.265 1.888-5.251 2.82-8.96 2.82-5.34 0-10.158-1.976-14.444-5.94l4.486-5.506c3.641 3.186 7.005 4.785 10.092 4.785 1.388 0 2.476-.3 3.264-.888.788-.6 1.188-1.4 1.188-2.41 0-1.01-.422-1.82-1.255-2.409-.832-.6-2.498-1.199-4.974-1.81-3.93-.932-6.806-2.153-8.615-3.652-1.821-1.499-2.731-3.842-2.731-7.05 0-3.198 1.154-5.673 3.452-7.417 2.299-1.743 5.174-2.609 8.616-2.609 2.254 0 4.508.389 6.761 1.155 2.254.777 4.22 1.865 5.896 3.286l-3.82 5.507c-2.93-2.22-5.961-3.33-9.081-3.33-1.244 0-2.232.3-2.954.888z"/></g><g><path fill="#fff" d="M62.207 866.944v6.717h-16.81v6.95H60.52v6.429H45.398v7.006H62.74v6.661H37.87v-33.763z"/></g><g><path fill="#fff" d="M86.155 873.473v27.234h-7.538v-27.234h-9.56v-6.518h26.657v6.518z"/></g></g></g><g><g><g><path fill="#fff" d="M414.956 873.406v-5.773h3.297c1.854 0 3.22.188 4.064.555.855.377 1.277 1.132 1.277 2.298 0 1.166-.4 1.932-1.2 2.332-.799.388-1.998.588-3.597.588h-3.83zm.01-10.181v-5.396h2.688c1.643 0 2.82.178 3.508.533.7.355 1.044 1.088 1.044 2.198 0 1.11-.378 1.832-1.133 2.165-.743.334-1.898.5-3.452.5zm5.375 14.91c3.441 0 5.85-.776 7.227-2.33 1.188-1.333 1.788-2.876 1.788-4.62 0-1.576-.455-2.897-1.377-3.963-.921-1.066-2.154-1.765-3.708-2.098.433-.19.733-.322.9-.411.166-.078.465-.289.898-.622 1.266-.955 1.899-2.42 1.899-4.374 0-1.621-.566-3.087-1.688-4.375-.621-.688-1.543-1.232-2.775-1.643-1.221-.41-2.687-.61-4.386-.61h-9.748v25.047h10.97z"/></g><g><path fill="#fff" d="M453.915 853.088v4.986h-12.469v5.162h11.214V868h-11.214v5.196h12.868v4.94h-18.452v-25.047z"/></g><g><path fill="#fff" d="M471.867 878.136h-5.595v-9.893l-8.671-15.155h6.05l5.407 9.316 5.407-9.316h6.051l-8.67 15.155v9.893z"/></g><g><path fill="#fff" d="M501.145 871.163c-1.433 1.566-3.198 2.343-5.285 2.343s-3.853-.777-5.285-2.343c-1.432-1.565-2.154-3.464-2.154-5.695 0-2.232.722-4.142 2.154-5.718 1.432-1.577 3.198-2.365 5.285-2.365s3.852.788 5.285 2.365c1.432 1.577 2.154 3.486 2.154 5.718 0 2.231-.722 4.13-2.154 5.695zm7.85-5.706c0-3.675-1.267-6.75-3.798-9.227-2.531-2.475-5.651-3.708-9.348-3.708-3.697 0-6.817 1.233-9.349 3.708-2.531 2.476-3.797 5.552-3.797 9.227 0 3.675 1.266 6.75 3.797 9.226 2.532 2.476 5.64 3.708 9.349 3.708 3.697 0 6.817-1.232 9.348-3.708 2.531-2.476 3.797-5.551 3.797-9.226z"/></g><g><path fill="#fff" d="M533.042 853.088h5.596v25.048h-5.596l-11.935-15.7v15.7h-5.596v-25.048h5.23l12.29 16.121v-16.12z"/></g><g><path fill="#fff" d="M561.62 871.252c-1.377 1.3-3.342 1.943-5.895 1.932h-3.553v-15.233h3.12c2.842 0 4.951.666 6.328 1.988 1.377 1.332 2.065 3.22 2.065 5.684 0 2.465-.688 4.341-2.065 5.63zm4.097-14.888c-2.387-2.187-5.818-3.276-10.281-3.276h-8.849v25.048h8.56c4.774 0 8.327-1.144 10.659-3.409 2.331-2.276 3.497-5.351 3.497-9.248 0-3.886-1.2-6.928-3.586-9.115z"/></g><g><path fill="#fff" d="M597.792 857.93v20.206h-5.596v-20.207h-7.094v-4.84h19.784v4.84z"/></g><g><path fill="#fff" d="M626.314 853.088h5.596v25.048h-5.596v-9.86h-9.959v9.86h-5.595v-25.048h5.595v10.46h9.96z"/></g><g><path fill="#fff" d="M657.923 853.088v4.986h-12.468v5.162h11.214V868h-11.214v5.196h12.868v4.94H639.87v-25.047z"/></g></g></g><g><g><g><path fill="#fff" d="M431.81 903.705l-6.773 13.69h-3.33l-6.74-13.69v15.765h-5.596v-25.047h7.561l6.45 13.756 6.485-13.756h7.527v25.047h-5.596v-15.765z"/></g><g><path fill="#fff" d="M463.418 894.423v4.985H450.95v5.163h11.214v4.763H450.95v5.196h12.868v4.94h-18.452v-25.047z"/></g><g><path fill="#fff" d="M483.98 909.145h-6.273l3.153-7.272zm10.381 10.325l-10.825-25.047h-5.407l-10.825 25.047h5.951l2.332-5.407h10.503l2.331 5.407z"/></g><g><path fill="#fff" d="M504.753 899.42c-.533.443-.81 1.032-.81 1.753 0 .733.321 1.31.988 1.743.655.434 2.176.933 4.552 1.522 2.376.588 4.219 1.465 5.54 2.63 1.31 1.167 1.976 2.876 1.976 5.13s-.844 4.064-2.531 5.463c-1.688 1.399-3.897 2.098-6.65 2.098-3.964 0-7.54-1.466-10.715-4.408l3.331-4.085c2.698 2.364 5.196 3.552 7.494 3.552 1.022 0 1.832-.222 2.42-.666.59-.444.878-1.043.878-1.787s-.311-1.344-.933-1.788c-.622-.444-1.854-.888-3.697-1.343-2.909-.688-5.052-1.599-6.395-2.71-1.355-1.11-2.02-2.852-2.02-5.228s.854-4.208 2.564-5.507c1.71-1.288 3.841-1.932 6.395-1.932 1.676 0 3.342.289 5.018.866 1.677.577 3.131 1.388 4.375 2.431l-2.831 4.086c-2.176-1.643-4.42-2.476-6.74-2.476-.943-.011-1.676.211-2.209.655z"/></g><g><path fill="#fff" d="M530.178 912.998c.932 1.154 2.187 1.743 3.763 1.743 1.577 0 2.82-.578 3.742-1.743.921-1.155 1.377-2.743 1.377-4.752v-13.834h5.595v14.011c0 3.63-.999 6.418-3.008 8.372-2.01 1.954-4.575 2.92-7.706 2.92-3.13 0-5.706-.978-7.727-2.943-2.02-1.954-3.03-4.74-3.03-8.349v-14.011h5.595v13.834c0 2.01.466 3.597 1.399 4.752z"/></g><g><path fill="#fff" d="M565.828 905.703c-.689.622-1.999.933-3.908.933h-4.086v-7.417h4.197c1.787 0 3.042.256 3.764.755.721.5 1.076 1.433 1.076 2.776 0 1.343-.355 2.331-1.043 2.953zm6.74-2.975c0-2.91-.834-5.019-2.51-6.34-1.654-1.321-4.43-1.976-8.327-1.976h-9.493v25.047h5.596v-7.994h3.875l5.551 7.994h6.884l-6.34-8.96c3.175-1.165 4.763-3.752 4.763-7.771z"/></g><g><path fill="#fff" d="M598.147 894.423v4.985H585.68v5.163h11.214v4.763h-11.214v5.196h12.868v4.94h-18.452v-25.047z"/></g><g><path fill="#fff" d="M627.746 903.705l-6.772 13.69h-3.33l-6.74-13.69v15.765h-5.596v-25.047h7.561l6.45 13.756 6.485-13.756h7.527v25.047h-5.595v-15.765z"/></g><g><path fill="#fff" d="M659.355 894.423v4.985h-12.468v5.163h11.214v4.763h-11.214v5.196h12.868v4.94h-18.452v-25.047z"/></g><g><path fill="#fff" d="M684.047 894.423h5.596v25.047h-5.596l-11.935-15.699v15.7h-5.596v-25.048h5.23l12.29 16.12v-16.12z"/></g><g><path fill="#fff" d="M708.195 899.253v20.206H702.6v-20.206h-7.095v-4.841h19.785v4.84z"/></g></g></g><g><path fill="url(#i07rb)" d="M385.534 847.737c0 3.864-14.3 7.927-14.3 27.823 0 10.048 8.305 16.998 8.305 27.823 0 17.964-26.48 30.91-37.682 30.91-4.252 0-6.373-1.744-6.373-3.287 0-.777.389-1.166 1.743-1.354 6.184-.966 24.737-6.373 24.737-36.128 0-5.351-.667-9.892-1.333-14.178-9.459 15.244-25.98 39.87-37.893 39.87-6.761 0-17.386-7.34-17.386-22.994 0-2.465.255-5.063.71-7.783-5.362 6.917-11.69 13.778-15.787 13.778-8.694 0-13.523-9.859-13.523-14.3-2.898 0-15.266 25.891-26.668 25.891-5.996 0-14.689-4.052-14.689-18.352 0-21.64 26.468-49.273 52.548-49.273 5.607 0 10.437 5.595 10.437 8.304 0 2.698-4.641.966-12.757 4.441-19.13 8.116-35.362 36.517-35.362 43.667 0 1.165.578 1.743 1.355 1.743 4.64 0 25.314-26.657 30.72-34.196 2.51-3.664 4.641-6.373 6.762-6.373 4.052 0 7.727 4.441 7.727 8.305 0 8.304-9.659 16.22-9.659 19.895 0 1.355.577 1.932 1.355 1.932 4.83 0 16.453-15.199 22.837-23.748 12.724-33.096 41.202-73.587 41.502-92.184 0-2.71.777-4.252 2.32-4.252 1.543 0 7.15 5.795 7.15 15.654 0 22.016-41.546 89.264-41.546 118.242 0 2.509 1.355 3.863 2.898 3.863 4.952 0 24.215-25.402 35.673-41.667a47.846 47.846 0 0 1-.123-3.353c0-14.489 13.523-24.537 19.13-24.537 4.052 0 7.139 2.51 7.172 5.818zM224.96 860.272c2.698 0 6.95 3.675 6.95 10.236 0 13.146-21.25 39.614-36.905 39.614-8.116 0-15.843-6.562-15.843-19.318 0-19.707 23.96-45.787 40.38-45.787 4.44 0 9.082 4.63 9.082 6.95 0 1.732-1.555 2.51-4.641 4.053-11.591 5.795-29.944 25.69-29.944 43.854 0 2.32 1.355 3.675 3.287 3.675 7.35 0 25.89-24.536 26.28-41.345 0-1.355.388-1.932 1.354-1.932zm-46.764-8.305c0 2.71-2.51 1.543-7.916 3.087-16.81 5.018-39.414 34.584-39.414 45.409 0 1.543.777 2.32 2.12 2.32 2.71 0 10.826-8.504 24.537-28.4 6.961-10.236 14.489-16.032 15.843-16.032 1.355 0 3.864 1.932 3.864 3.864 0 2.32-10.625 5.606-15.455 52.748-5.606 55.068-28.211 73.81-51.204 73.81-3.287 0-5.796-.967-5.796-2.321 0-.966 1.155-1.932 3.475-3.286 37.87-23.571 43.478-86.556 46.375-93.706-8.304 11.403-16.42 21.839-25.502 21.839-5.984 0-14.1-5.218-14.1-15.066 0-22.216 29.754-51.97 54.49-51.97 4.43-.023 8.683 4.806 8.683 7.704z"/></g><g><g><path fill="#fff" d="M32.752 734.347l-.033-23.026-11.258 19.451h-.966l-11.27-19.374v22.95h-1.92v-26.913H8.96l12.036 20.795 12.035-20.795h1.61l.033 26.912z"/></g><g><path fill="#fff" d="M47.774 725.121l7.039-15.532 7.072 15.532zm18.319 9.226h2.11l-12.38-26.912h-1.965l-12.38 26.912h2.11l3.42-7.572h15.61z"/></g><g><path fill="#fff" d="M82.98 721.09l-6.04 6.185v7.072h-1.965v-26.912h1.965v17.297l16.798-17.297h2.387L84.29 719.659l12.646 14.688h-2.387z"/></g><g><path fill="#fff" d="M122.494 732.582v1.765h-18.575v-26.912h17.986v1.765h-16.02v10.614h14.333v1.732h-14.334v11.036h16.61z"/></g><g><path fill="#fff" d="M169.613 707.446l-11.38 26.912h-8.916l-11.38-26.912h9.76l6.417 15.72 6.572-15.72z"/></g><g><path fill="#fff" d="M186.133 727.619c-3.353 0-6.04-2.542-6.04-6.728s2.687-6.728 6.04-6.728 6.04 2.542 6.04 6.728c0 4.197-2.687 6.728-6.04 6.728zm.011 7.339c8.771 0 15.189-5.918 15.189-14.067 0-8.15-6.429-14.067-15.189-14.067-8.77 0-15.188 5.918-15.188 14.067 0 8.15 6.417 14.067 15.188 14.067z"/></g><g><path fill="#fff" d="M206.54 707.446h9.07v19.873h12.147v7.04H206.54z"/></g><g><path fill="#fff" d="M231.753 722.234v-14.8h9.071v14.534c0 4.119 1.577 5.651 4.108 5.651 2.532 0 4.108-1.532 4.108-5.651v-14.533h8.915v14.8c0 8.07-4.84 12.723-13.112 12.723-8.271 0-13.09-4.652-13.09-12.724z"/></g><g><path fill="#fff" d="M290.563 707.446v26.912h-7.46l-10.226-12.224v12.224h-8.837v-26.912h7.46l10.226 12.224v-12.224z"/></g><g><path fill="#fff" d="M302.698 714.474h-7.882v-7.04h24.836v7.04h-7.883v19.873h-9.07v-19.873z"/></g><g><path fill="#fff" d="M333.186 723.122l2.609-6.761 2.61 6.761zm9.504 11.225h9.381l-11.757-26.912h-8.916l-11.757 26.912h9.226l1.81-4.685h10.225z"/></g><g><path fill="#fff" d="M367.848 714.44c2.498 0 3.686 1.188 3.686 3.153 0 1.966-1.188 3.154-3.686 3.154h-3.309v-6.307h3.309zm3.73 19.907h9.682l-5.651-8.304c3.23-1.655 5.074-4.575 5.074-8.46 0-6.229-4.763-10.148-12.258-10.148H355.47v26.912h9.07v-6.761h2.465z"/></g><g><path fill="#fff" d="M401.633 724.588v9.76h-9.07v-9.882l-10.149-17.031h9.57l5.497 9.303 5.54-9.303h8.76z"/></g><g><path fill="#fff" d="M440.558 732.726c-6.883 0-12.035-5.03-12.035-11.835 0-6.795 5.152-11.835 12.035-11.835 6.84 0 11.991 5.029 11.991 11.835 0 6.806-5.152 11.846-11.99 11.835zm0 1.81c7.994 0 13.99-5.807 13.99-13.645 0-7.839-5.996-13.645-13.99-13.645-8.027 0-13.989 5.84-13.989 13.645s5.962 13.645 13.99 13.645z"/></g><g><path fill="#fff" d="M475.265 732.66h-10.037v-11.114h10.037c5.151 0 7.96 1.699 7.96 5.54 0 3.875-2.809 5.574-7.96 5.574zm-.844-23.527c4.652 0 7.339 1.799 7.339 5.34 0 3.576-2.687 5.385-7.34 5.385h-9.192v-10.725zm4.84 11.347c2.687-.888 4.497-2.964 4.497-6.15 0-4.464-3.497-6.884-9.26-6.884h-11.224v26.912h11.99c6.607 0 9.915-2.575 9.915-7.116 0-3.73-2.11-6.04-5.917-6.762z"/></g><g><path fill="#fff" d="M494.095 707.446h1.965v25.136h15.488v1.765h-17.453z"/></g><g><path fill="#fff" d="M518.498 707.446h1.965v26.912h-1.965z"/></g><g><path fill="#fff" d="M550.984 721.013h1.887v10.07c-2.42 2.31-5.917 3.464-9.615 3.464-8.115 0-14.066-5.807-14.066-13.645 0-7.838 5.962-13.645 14.11-13.645 3.887 0 7.306 1.232 9.682 3.686l-1.232 1.31c-2.343-2.309-5.152-3.186-8.416-3.186-6.994 0-12.19 5.074-12.19 11.835 0 6.728 5.184 11.835 12.19 11.835 2.842 0 5.463-.688 7.65-2.464z"/></g><g><path fill="#fff" d="M565.206 725.121l7.028-15.532 7.072 15.532zm18.297 9.226h2.11l-12.38-26.912h-1.965l-12.38 26.912h2.11l3.42-7.572h15.61z"/></g><g><path fill="#fff" d="M596.215 709.211h-9.68v-1.765h21.327v1.765h-9.681v25.136h-1.965v-25.136z"/></g><g><path fill="#fff" d="M614.623 707.446h1.966v26.912h-1.966z"/></g><g><path fill="#fff" d="M639.293 732.726c-6.883 0-12.035-5.03-12.035-11.835 0-6.795 5.152-11.835 12.035-11.835 6.84 0 11.99 5.029 11.99 11.835 0 6.806-5.14 11.846-11.99 11.835zm0 1.81c7.994 0 13.99-5.807 13.99-13.645 0-7.839-5.996-13.645-13.99-13.645-8.027 0-13.989 5.84-13.989 13.645s5.962 13.645 13.99 13.645z"/></g><g><path fill="#fff" d="M683.914 707.446v26.912h-1.61l-18.341-23.37v23.37h-1.965v-26.912h1.654l18.297 23.37v-23.37z"/></g><g><path fill="#fff" d="M692.485 730.883l.888-1.465c1.843 1.92 5.263 3.386 8.882 3.386 5.385 0 7.761-2.343 7.761-5.263 0-8.071-16.798-3.23-16.798-13.145 0-3.808 2.92-7.15 9.537-7.15 2.964 0 6.04.921 8.116 2.42l-.733 1.577c-2.231-1.532-4.963-2.265-7.383-2.265-5.23 0-7.572 2.42-7.572 5.385 0 8.071 16.798 3.308 16.798 13.067 0 3.808-3.042 7.117-9.681 7.117-4.008-.011-7.85-1.51-9.815-3.664z"/></g></g><g><path fill="none" stroke="#d2451e" stroke-miterlimit="50" stroke-width="4" d="M3.608 687.672h711.249"/></g><g><g><g><path fill="#fff" d="M30.798 96.009H20.717v-83.37h10.081c11.824 0 15.921 8.66 15.921 19.697v44.132c0 11.025-4.097 19.54-15.92 19.54zm0-87.621h-14.5v92.04h14.5c14.966 0 20.329-10.404 20.329-23.96V32.336c0-13.556-5.352-23.96-20.329-23.96zm-17.175 94.715V5.545h18.274c16.077 0 21.905 11.503 21.905 26.002v45.71c0 14.81-5.673 25.846-21.905 25.846zM9.203 1.293v106.218h22.694c19.385 0 26.324-13.079 26.324-30.255V31.547c0-17.02-7.094-30.254-26.324-30.254z"/></g><g><path fill="#fff" d="M109.126 77.878c0 10.248-3.308 19.074-14.344 19.074-10.87 0-14.655-9.459-14.655-19.54v-46.02c0-9.926 3.94-19.54 14.655-19.54 11.036 0 14.344 9.614 14.344 19.695zm-33.263-.477c0 12.457 4.719 23.804 18.908 23.804 14.178 0 18.752-10.714 18.752-23.327v-46.33c0-12.458-4.408-24.115-18.752-24.115-13.867 0-18.908 11.98-18.908 23.959zm-2.831-47.43c0-13.712 6.773-25.691 21.75-25.691 15.133 0 21.594 11.98 21.594 25.69v48.696c0 14.5-5.995 25.536-21.594 25.536-15.288 0-21.75-11.347-21.75-25.536zm47.752 0c0-16.077-7.883-29.788-26.002-29.788-17.964 0-26.158 13.711-26.158 29.788v48.695c0 16.71 7.872 29.788 26.158 29.788 18.597 0 26.002-12.767 26.002-29.788z"/></g><g><path fill="#fff" d="M205.74 65.754h-15.132l7.56-33.73zm-20.65 4.252h26.157l-13.079-57.21zm26.779 2.843h-27.423l-6.773 30.254h-2.998l22.383-97.558h2.21l22.227 97.558h-2.842zM193.583 1.293l-24.27 106.229h11.824l7.095-30.421h20.173l6.617 30.42h11.824L202.732 1.294z"/></g><g><path fill="#fff" d="M232.364 75.68h2.987c0 10.714 1.898 25.691 17.497 25.691 12.135 0 18.12-7.25 18.12-19.23 0-8.826-9.304-18.907-16.71-25.058h.156c-9.77-7.083-20.962-18.12-20.962-30.887 0-12.135 7.56-21.75 20.173-21.75 15.766 0 19.074 10.88 19.074 27.268h-2.675c-.156-10.87-1.1-24.426-16.388-24.426-11.513 0-17.497 8.982-17.497 19.696 0 21.428 37.67 31.987 37.67 55.002 0 14.023-6.772 22.06-20.96 22.06-15.91 0-20.485-11.024-20.485-28.366zm25.203-25.38v.155c-8.505-7.56-17.02-14.81-17.02-23.482 0-8.349 4.407-15.288 13.078-15.288 11.192 0 11.98 11.98 11.98 24.27h11.502c0-19.851-2.21-35.772-23.482-35.772-15.288 0-24.592 11.347-24.592 26.002 0 14.5 12.135 26.801 22.694 34.362l-.156-.155c6.629 5.518 14.978 13.4 14.978 21.75 0 9.137-4.575 14.81-13.712 14.81-11.658 0-13.234-11.036-13.234-25.69H228.1c0 24.27 5.051 37.192 24.747 37.192 17.02 0 25.214-9.77 25.214-26.479 0-13.079-10.237-22.538-20.484-31.675z"/></g><g><path fill="#fff" d="M347.886 54.407l18.44-48.862h2.999l-20.018 52.793v44.754h-2.998V58.338c-6.628-17.642-13.556-34.984-19.862-52.793h2.997zm5.673 53.104V59.126l22.06-57.844h-12.29c-4.73 12.923-10.247 27.101-15.443 40.657L332.442 1.282h-12.29c3.464 9.615 9.459 25.536 21.75 57.844v48.385z"/></g><g><path fill="#fff" d="M417.076 77.878c0 10.248-3.308 19.074-14.344 19.074-10.87 0-14.655-9.459-14.655-19.54v-46.02c0-9.926 3.941-19.54 14.655-19.54 11.036 0 14.344 9.614 14.344 19.695zm-33.252-.477c0 12.457 4.719 23.804 18.908 23.804 14.178 0 18.752-10.714 18.752-23.327v-46.33c0-12.458-4.408-24.115-18.752-24.115-13.867 0-18.908 11.98-18.908 23.959zm-2.842-47.43c0-13.712 6.773-25.691 21.75-25.691 15.133 0 21.594 11.98 21.594 25.69v48.696c0 14.5-5.995 25.536-21.594 25.536-15.288 0-21.75-11.347-21.75-25.536zm47.752 0c0-16.077-7.883-29.788-26.002-29.788-17.964 0-26.157 13.711-26.157 29.788v48.695c0 16.71 7.871 29.788 26.157 29.788 18.597 0 26.002-12.767 26.002-29.788z"/></g><g><path fill="#fff" d="M442.146 80.565V5.545h2.676v74.232c0 12.29 5.984 21.594 18.907 21.594 13.09 0 19.074-9.304 19.074-21.594V5.545h2.831v75.02c0 13.867-7.56 23.482-21.905 23.482-14.344 0-21.594-9.615-21.594-23.482zm47.885 0V1.138h-11.658v78.639c0 9.77-4.574 17.175-14.655 17.175-9.926 0-14.5-7.405-14.5-17.175V1.137h-11.657v79.428c.155 16.554 8.982 27.9 26.157 27.9 17.342 0 26.324-11.357 26.324-27.9z"/></g><g><path fill="#fff" d="M541.425 75.68h2.997c0 10.714 1.899 25.691 17.498 25.691 12.135 0 18.119-7.25 18.119-19.23 0-8.826-9.304-18.907-16.71-25.058h.156c-9.77-7.083-20.961-18.12-20.961-30.887 0-12.135 7.56-21.75 20.173-21.75 15.766 0 19.074 10.88 19.074 27.268h-2.687c-.155-10.87-1.099-24.426-16.387-24.426-11.513 0-17.498 8.982-17.498 19.696 0 21.428 37.671 31.987 37.671 55.002 0 14.023-6.772 22.06-20.961 22.06-15.91 0-20.484-11.024-20.484-28.366zm25.191-25.38v.155c-8.504-7.56-17.02-14.81-17.02-23.482 0-8.349 4.408-15.288 13.079-15.288 11.191 0 11.98 11.98 11.98 24.27h11.502c0-19.851-2.21-35.772-23.482-35.772-15.277 0-24.581 11.347-24.581 26.002 0 14.5 12.135 26.801 22.693 34.362l-.155-.155c6.628 5.518 14.977 13.4 14.977 21.75 0 9.137-4.574 14.81-13.711 14.81-11.658 0-13.235-11.036-13.235-25.69h-11.502c0 24.27 5.052 37.192 24.748 37.192 17.02 0 25.213-9.77 25.213-26.479 0-13.079-10.236-22.538-20.484-31.675z"/></g><g><path fill="#fff" d="M627.469 65.754h-15.133l7.561-33.73zm-20.65 4.252h26.157l-13.079-57.21zm26.79 2.843h-27.424l-6.772 30.254h-2.998l22.383-97.558h2.21l22.226 97.558h-2.842zM615.323 1.293l-24.27 106.229h11.824L609.97 77.1h20.174l6.617 30.42h11.824L624.47 1.294z"/></g><g><path fill="#fff" d="M667.35 54.407l18.44-48.862h2.998L668.77 58.338v44.754h-2.997V58.338c-6.629-17.642-13.557-34.984-19.863-52.793h2.998zm5.661 53.104V59.126l22.061-57.844h-12.29c-4.73 12.923-10.248 27.101-15.444 40.657L651.894 1.282h-12.29c3.464 9.615 9.46 25.536 21.75 57.844v48.385z"/></g></g><g><path fill="#d2451e" d="M525.348 136.655a715.307 715.307 0 0 1 71.822-4.197 711.885 711.885 0 0 1 71.845 3.087 697.326 697.326 0 0 1 40.146 4.93l.733-5.452c-24.081-2.143-48.218-4.241-72.422-4.208-24.225.033-48.584 2.265-72.033 8.549a206.159 206.159 0 0 0-39.536 15.088c-3.186 1.61-.377 6.406 2.798 4.796 21.683-10.947 45.32-17.586 69.39-20.584 23.738-2.953 47.753-2.686 71.59-1.265 13.423.8 26.823 1.976 40.224 3.175 3.075.278 3.841-4.985.733-5.451-23.926-3.63-48.03-6.107-72.2-7.328a706.388 706.388 0 0 0-72.41.044c-13.59.7-27.146 1.799-40.669 3.276-1.488.166-2.775 1.154-2.775 2.775-.011 1.355 1.254 2.92 2.764 2.765z"/></g></g><g><g><g><path fill="#d2451e" d="M6.217 1107.17v-33.153c0-9.759 4.508-17.264 14.91-17.264 10.515 0 14.59 7.516 14.59 19.418h-1.932c0-8.904-1.821-17.586-12.657-17.586-9.115 0-12.979 7.294-12.979 15.443v33.141c0 8.15 3.753 15.444 12.868 15.444 10.836 0 12.768-8.793 12.768-17.587h1.932c0 10.292-2.565 19.519-14.69 19.519-10.402 0-14.799-7.617-14.799-17.376zm32.508-5.152v.01zm0 .01h-7.938c0 10.082-1.288 17.698-9.76 17.698-7.082 0-9.87-5.895-9.87-12.546v-33.14c0-6.651 2.887-12.446 9.97-12.446 9.216 0 9.649 8.682 9.649 17.586h7.938c0-16.632-3.22-25.425-17.586-25.425-12.435 0-17.909 8.793-17.909 20.273v33.141c0 11.48 5.363 20.273 17.809 20.273 16.083 0 17.696-11.906 17.697-25.413z"/></g><g><path fill="#d2451e" d="M65.205 1098.365H54.913l5.151-22.949zm-14.045 2.909H68.97l-8.905-38.937zm18.23 1.92H50.738l-4.607 20.596h-2.043l15.232-66.393h1.5l15.12 66.393h-1.93zM56.944 1054.5l-16.52 72.288h8.05l4.829-20.695h13.723l4.507 20.695h8.05l-16.41-72.288z"/></g><g><path fill="#d2451e" d="M97.169 1086.885H90.95v-24.559h7.184c8.05 0 9.548 5.04 9.548 12.446 0 8.16-2.043 12.124-10.514 12.124zm.966-27.456H88.054v30.465h9.115c10.825 0 13.512-4.93 13.512-15.122 0-9.115-2.032-15.332-12.546-15.332zm14.178 44.52v19.84h-2.043v-19.518c0-8.693-2.898-12.445-11.902-12.445H88.076v31.964h-2.043v-66.393H98.58c11.358 0 14.045 7.183 14.045 17.375 0 6.44-1.066 13.945-8.15 16.088 6.429 1.51 7.828 7.405 7.828 13.09zm-13.745-49.439H83.124v72.289h7.827v-31.965h7.406c6.75 0 9.004 2.787 9.004 9.437v22.528h7.838v-22.85c0-4.829-1.188-10.191-4.507-13.3 3.963-3.975 4.93-10.403 4.93-15.877 0-12.013-3.22-20.273-17.054-20.273z"/></g><g><path fill="#d2451e" d="M124.204 1123.79v-66.382h22.948v1.932h-21.128v30.565h14.156v1.82h-14.156v30.244h21.128v1.82zm4.718-36.894v-24.67h21.24v-7.727h-28.956v72.288h28.955v-7.827h-21.239v-24.237h14.156v-7.827z"/></g><g><path fill="#fff" d="M207.306 1098.365h-10.292l5.151-22.949zm-14.045 2.909h17.808l-8.904-38.937zm18.241 1.92H192.84l-4.607 20.596h-2.043l15.232-66.393h1.5l15.12 66.393h-1.931zm-12.457-48.695l-16.52 72.288h8.05l4.829-20.695h13.734l4.507 20.695h8.05l-16.41-72.288z"/></g><g><path fill="#fff" d="M240.99 1118.949h-6.872v-24.237h6.118c7.827 0 10.403 4.619 10.403 12.124 0 7.294-2.032 12.124-9.648 12.124zm-6.86-32.053v-24.67h4.507c7.716 0 10.936 4.719 10.936 12.224 0 7.194-2.687 12.446-10.192 12.446zm6.117 4.818h-9.004v30.144h9.759c9.97 0 12.657-6.007 12.657-15.01 0-9.438-3.442-15.122-13.412-15.122zm-9.004-32.386v30.566h8.149c9.648 0 13.19-6.54 13.19-15.444 0-9.437-4.186-15.122-13.945-15.122zm10.07 64.473h-12.124v-66.393h9.226c11.258 0 16.088 6.006 16.088 17.053 0 6.973-1.932 13.4-8.905 16.088 7.717 1.599 10.081 9.115 10.081 16.298 0 10.081-3.32 16.943-14.366 16.943zm-15-69.302v72.288h15.01c13.302 0 17.376-8.05 17.376-19.95 0-6.44-1.71-13.09-6.861-16.732 4.508-3.753 5.684-9.537 5.684-15.655 0-12.868-5.684-19.951-19.096-19.951z"/></g><g><path fill="#fff" d="M289.686 1106.625c0 6.973-2.253 12.979-9.759 12.979-7.394 0-9.97-6.44-9.97-13.3v-31.321c0-6.761 2.676-13.3 9.97-13.3 7.506 0 9.76 6.55 9.76 13.411zm-22.627-31.63v31.32c0 8.47 3.209 16.198 12.868 16.198 9.66 0 12.768-7.294 12.768-15.877v-31.53c0-8.472-3.009-16.41-12.768-16.41-9.437 0-12.868 8.149-12.868 16.298zm-1.931 32.174v-33.14c0-9.338 4.607-17.487 14.8-17.487 10.291 0 14.688 8.16 14.688 17.486v33.141c0 9.87-4.075 17.376-14.689 17.376-10.403 0-14.8-7.728-14.8-17.376zm32.497-33.14c0-10.948-5.363-20.274-17.698-20.274-12.235 0-17.808 9.337-17.808 20.273v33.141c0 11.37 5.362 20.273 17.808 20.273 12.657 0 17.698-8.693 17.698-20.273z"/></g><g><path fill="#fff" d="M306.74 1057.408h1.82v50.516c0 8.36 4.075 14.689 12.868 14.689 8.905 0 12.98-6.317 12.98-14.689v-50.516h1.931v51.05c0 9.436-5.151 15.976-14.91 15.976-9.76 0-14.69-6.54-14.69-15.977zm32.608-3.009h-7.938v53.525c0 6.65-3.11 11.691-9.97 11.691-6.762 0-9.87-5.04-9.87-11.69v-53.526h-7.939v54.058c.111 11.258 6.118 18.985 17.808 18.985 11.791 0 17.909-7.727 17.909-18.985z"/></g><g><path fill="#fff" d="M345.998 1059.329v-1.932h25.958v1.932h-12.013v64.46H357.9v-64.46zm16.832 2.897h12.013v-7.827h-31.854v7.827h12.013v64.461h7.828z"/></g><g><path fill="#fff" d="M428.357 1106.625c0 6.973-2.254 12.979-9.76 12.979-7.394 0-9.97-6.44-9.97-13.3v-31.321c0-6.761 2.676-13.3 9.97-13.3 7.506 0 9.76 6.55 9.76 13.411zm-22.627-.31c0 8.47 3.208 16.198 12.868 16.198 9.648 0 12.756-7.294 12.756-15.877v-31.53c0-8.472-2.997-16.41-12.756-16.41-9.438 0-12.868 8.149-12.868 16.298zm-1.932-32.287c0-9.337 4.607-17.486 14.8-17.486 10.292 0 14.688 8.16 14.688 17.486v33.141c0 9.87-4.074 17.376-14.688 17.376-10.404 0-14.8-7.728-14.8-17.376zm32.497 0c0-10.947-5.363-20.273-17.697-20.273-12.235 0-17.809 9.337-17.809 20.273v33.141c0 11.37 5.363 20.273 17.809 20.273 12.656 0 17.697-8.693 17.697-20.273z"/></g><g><path fill="#fff" d="M445.41 1057.408h1.82v50.516c0 8.36 4.076 14.689 12.869 14.689 8.904 0 12.979-6.317 12.979-14.689v-50.516h1.931v51.05c0 9.436-5.151 15.976-14.91 15.976-9.76 0-14.689-6.54-14.689-15.977zm32.608-3.009h-7.938v53.525c0 6.65-3.109 11.691-9.97 11.691-6.762 0-9.87-5.04-9.87-11.69v-53.526H442.3v54.058c.111 11.258 6.118 18.985 17.809 18.985 11.79 0 17.908-7.727 17.908-18.985z"/></g><g><path fill="#fff" d="M484.669 1059.329v-1.932h25.957v1.932h-12.013v64.46h-2.043v-64.46zm16.831 2.897h12.013v-7.827H481.66v7.827h12.013v64.461h7.827z"/></g><g><path fill="#fff" d="M522.184 1107.17v-33.153c0-9.759 4.507-17.264 14.91-17.264 10.515 0 14.59 7.516 14.59 19.418h-1.933c0-8.904-1.82-17.586-12.656-17.586-9.116 0-12.98 7.294-12.98 15.443v33.141c0 8.15 3.753 15.444 12.869 15.444 10.836 0 12.767-8.793 12.767-17.587h1.932c0 10.292-2.564 19.519-14.688 19.519-10.403 0-14.8-7.617-14.8-17.376zm32.508-5.152v.01zm0 .01h-7.938c0 10.082-1.288 17.698-9.76 17.698-7.083 0-9.87-5.895-9.87-12.546v-33.14c0-6.651 2.887-12.446 9.97-12.446 9.216 0 9.649 8.682 9.649 17.586h7.938c0-16.632-3.22-25.425-17.586-25.425-12.435 0-17.909 8.793-17.909 20.273v33.141c0 11.48 5.363 20.273 17.809 20.273 16.083 0 17.696-11.906 17.697-25.413z"/></g><g><path fill="#fff" d="M587.833 1106.625c0 6.973-2.254 12.979-9.76 12.979-7.393 0-9.97-6.44-9.97-13.3v-31.321c0-6.761 2.677-13.3 9.97-13.3 7.506 0 9.76 6.55 9.76 13.411zm-22.627-.31c0 8.47 3.209 16.198 12.868 16.198 9.648 0 12.757-7.294 12.757-15.877v-31.53c0-8.472-2.998-16.41-12.757-16.41-9.437 0-12.868 8.149-12.868 16.298zm-1.932-32.287c0-9.337 4.608-17.486 14.8-17.486 10.292 0 14.688 8.16 14.688 17.486v33.141c0 9.87-4.074 17.376-14.688 17.376-10.403 0-14.8-7.728-14.8-17.376zm32.497 0c0-10.947-5.362-20.273-17.697-20.273-12.235 0-17.809 9.337-17.809 20.273v33.141c0 11.37 5.363 20.273 17.809 20.273 12.657 0 17.697-8.693 17.697-20.273z"/></g><g><path fill="#fff" d="M621.53 1123.79l-14.69-57.278v57.278h-1.931v-66.393h1.71l15.654 61.452 15.766-61.452h1.82v66.393h-2.043v-57.378l-14.477 57.378zm-19.652-69.291v72.288h7.938v-36.782l9.437 36.782h6.329l9.326-37.326v37.326h7.827V1054.5h-6.972l-13.512 52.337-13.4-52.337z"/></g><g><path fill="#fff" d="M650.895 1123.79v-66.382h22.95v1.932h-21.129v30.565h14.156v1.82h-14.156v30.244h21.128v1.82zm4.719-36.894v-24.67h21.239v-7.727h-28.955v72.288h28.955v-7.827h-21.24v-24.237h14.157v-7.827z"/></g><g><path fill="#fff" d="M679.64 1105.127h2.031c0 7.294 1.288 17.486 11.902 17.486 8.26 0 12.335-4.94 12.335-13.09 0-6.007-6.328-12.868-11.369-17.053h.111c-6.65-4.819-14.267-12.324-14.267-21.017 0-8.26 5.152-14.8 13.734-14.8 10.725 0 12.979 7.394 12.979 18.552h-1.82c-.112-7.394-.756-16.62-11.159-16.62-7.827 0-11.902 6.117-11.902 13.411 0 14.578 25.636 21.772 25.636 37.427 0 9.537-4.619 15.01-14.267 15.01-10.836 0-13.944-7.505-13.944-19.306zm17.153-17.265v.111c-5.785-5.14-11.58-10.081-11.58-15.977 0-5.684 3.009-10.403 8.904-10.403 7.617 0 8.15 8.16 8.15 16.52h7.827c0-13.51-1.5-24.347-15.977-24.347-10.403 0-16.731 7.728-16.731 17.698 0 9.87 8.26 18.23 15.443 23.381l-.11-.11c4.507 3.752 10.191 9.114 10.191 14.8 0 6.216-3.108 10.08-9.326 10.08-7.938 0-9.015-7.516-9.015-17.486h-7.827c0 16.52 3.43 25.313 16.842 25.313 11.591 0 17.165-6.65 17.165-18.019 0-8.904-6.972-15.344-13.945-21.561z"/></g></g></g></g></g></g></svg>