<svg xmlns="http://www.w3.org/2000/svg" width="26" height="25" viewBox="0 0 26 25"><g><g><g><path fill="#d2451e" d="M16.19 16.341c-2.115 1.903-5.396 1.683-7.256-.476-1.86-2.158-1.677-5.415.474-7.28 2.115-1.903 5.397-1.684 7.256.475 1.896 2.159 1.677 5.415-.474 7.281zm-7.875-9c-2.808 2.487-3.1 6.805-.62 9.622s6.782 3.11 9.589.622c2.808-2.488 3.1-6.805.62-9.623-2.48-2.817-6.782-3.11-9.59-.622z"/></g><g><path fill="#d2451e" d="M18.25 18.676a8.302 8.302 0 0 1-11.702-.76C3.543 14.508 3.903 9.26 7.31 6.253c3.446-3.005 8.695-2.685 11.7.762a8.216 8.216 0 0 1-.761 11.66zm7.132-5.129c.04-.48.04-.961.04-1.482 0-.481-.04-.962-.12-1.443l-2.485-.4-.841-2.365 1.683-1.923a14.435 14.435 0 0 0-1.803-2.325L19.57 4.731 17.488 3.33l.2-2.484a11.93 11.93 0 0 0-2.725-.802l-1.162 2.244-2.524.04L9.994.123c-.961.2-1.883.561-2.765.962L7.63 3.65 5.627 5.172 3.302 4.171A11.096 11.096 0 0 0 1.66 6.575l1.764 1.803-.722 2.404-2.484.561c-.04.521-.04 1.002-.04 1.523 0 .48.04.922.12 1.403l2.484.44.842 2.365-1.683 1.923c.52.842 1.122 1.603 1.803 2.324L6.027 20.2l2.084 1.403-.24 2.484c.881.36 1.843.641 2.805.842l1.162-2.244 2.524-.08 1.282 2.163c.962-.24 1.884-.56 2.765-1.001l-.4-2.485 2.003-1.523 2.324 1.002a11.095 11.095 0 0 0 1.643-2.404l-1.763-1.803.721-2.405z"/></g></g></g></svg>