<svg xmlns="http://www.w3.org/2000/svg" width="25" height="25" viewBox="0 0 25 25"><g><g><g><path fill="#d2451e" d="M12.291 6.585l.242.144c1.277.755 2.417 1.582 3.28 2.229.414.359.863.647 1.277.934l.277.18v.323c-.484 3.307-2.832 6.758-4.8 8.34l-.276.215-.276-.18c-2.452-1.474-4.316-4.888-4.627-8.482L7.354 10l.207-.18c1.346-1.15 2.866-2.156 4.523-3.09zm.035 13.048c2.59-1.725 5.455-6.039 5.697-9.885-.622-.431-1.278-.898-1.934-1.366-1.174-.826-2.382-1.689-3.729-2.48-1.795.899-3.66 2.157-5.628 3.81.207 4.421 2.52 8.519 5.594 9.92z"/></g><g><path fill="#d2451e" d="M19.536 9.47c-.275 4.59-3.767 9.496-6.828 11.418l-.353.236-.392-.157C8.196 19.319 5.409 14.57 5.174 9.43v-.392l.314-.236c2.315-1.844 4.434-3.217 6.553-4.238l.353-.196.354.196c1.57.864 2.943 1.845 4.277 2.747.745.51 1.452 1.02 2.158 1.452l.392.235zm3.61-2.747c-.235-.314-.392-.668-.667-.982a4.761 4.761 0 0 0-.392-.549C17.888-.184 10.157-1.204 4.782 2.995.112 6.605-1.34 13.04 1.328 18.299c.04.117.118.274.236.392 0 .04 0 .078.04.118 3.335 5.925 10.869 8.044 16.794 4.709 5.965-3.336 8.044-10.87 4.748-16.795z"/></g></g></g></svg>