<svg xmlns="http://www.w3.org/2000/svg" width="37" height="36" viewBox="0 0 37 36"><defs><clipPath id="wdrea"><path fill="#fff" d="M.615 17.98c0-9.931 8.058-17.981 18-17.981 9.94 0 18 8.05 18 17.98s-8.06 17.98-18 17.98c-9.942 0-18-8.05-18-17.98z"/></clipPath></defs><g><g><g opacity=".95"><path fill="none" stroke="#fff" stroke-miterlimit="50" stroke-width="2" d="M.615 17.98c0-9.931 8.058-17.981 18-17.981 9.94 0 18 8.05 18 17.98s-8.06 17.98-18 17.98c-9.942 0-18-8.05-18-17.98z" clip-path="url(&quot;#wdrea&quot;)"/></g><g><g><path fill="#fff" d="M11.693 24.622V15.12h2.953v9.502zm3.05-12.145c0 .816-.602 1.477-1.593 1.477-.933 0-1.535-.661-1.535-1.477 0-.836.622-1.477 1.574-1.477.952 0 1.535.641 1.554 1.477z"/></g><g><path fill="#fff" d="M16.414 18.151c0-1.185-.039-2.176-.078-3.031h2.565l.136 1.321h.059c.388-.622 1.34-1.535 2.934-1.535 1.944 0 3.4 1.302 3.4 4.1v5.616h-2.953v-5.266c0-1.224-.428-2.06-1.496-2.06-.817 0-1.302.564-1.516 1.108-.078.194-.097.466-.097.738v5.48h-2.954z"/></g></g></g></g></svg>