<svg xmlns="http://www.w3.org/2000/svg" width="77" height="78" viewBox="0 0 77 78"><g><g><g/><g/><g><path fill="#993921" d="M22.593 41.94L1.3 69.885c-1.52 2.09-1.14 4.943.95 6.463.951.57 1.902.951 2.852.951h41.635c1.52 0 2.852-.57 3.802-1.901L73.543 45.55H61.566l-17.11 22.434H35.52L52.63 45.55H40.653l-17.11 22.434h-8.745l17.3-22.434c-3.992.19-7.224-1.33-9.505-3.612z"/></g><g><path fill="#d2451e" d="M53.39 32.434L36.09 10h8.936l17.3 22.624h-8.935zm-20.912 0L15.178 10h8.936l17.3 22.624h-8.936zm43.156 1.9L51.109 2.587C49.97 1.066 48.068.495 46.357.875c-.38-.19-.57-.19-.95-.19H5.672C3.58.685 1.87 2.015 1.11 3.727c0 .19 0 .19-.19.38V6.578c0 .19 0 .19.19.38 0 .19 0 .19.19.38 0 .19.19.19.19.381.19.19.19.38.38.57L18.6 29.962s-1.33-1.52 3.232 4.183c1.331 1.71 2.852 3.041 3.993 4.182 2.851 2.281 5.513 2.662 7.414 2.662h39.544c1.52 0 6.653-1.521 2.85-6.654z"/></g></g></g></svg>