<svg xmlns="http://www.w3.org/2000/svg" width="112" height="111" viewBox="0 0 112 111"><g><g><g><g><g/><g/><g><path d="M32.994 59.774L2.228 100.21c-2.198 3.077-1.758 7.033 1.318 9.23l3.956 1.319h60.214c2.197 0 4.395-.88 5.713-2.637l33.403-43.073h-17.14L65.078 97.573H52.333l24.612-32.525h-17.14L35.19 97.573H22.445l25.053-32.525c-6.153 0-10.988-1.758-14.504-5.274z"/></g><g><path d="M77.385 45.71L52.332 13.186h12.746L90.131 45.71zm-30.327 0L22.006 13.186h12.746L59.804 45.71zm62.412 3.076L73.869 3.076C72.11.88 69.474 0 66.836.44c-.439 0-.879 0-1.318-.44H8.381C5.304 0 3.107 1.758 1.788 4.395c0 .44 0 .44-.44.44V8.35c0 .44 0 .44.44.44 0 .439 0 .439.44.439 0 .44.44.44.44.44.439.439.439.439.439.879L27.28 41.754s-1.758-2.197 4.835 6.153c1.758 2.198 3.516 3.956 5.713 6.153 3.077 2.638 6.593 3.956 10.549 3.956h57.137c2.197.44 9.67-1.758 3.956-9.23z"/></g></g></g></g></g></svg>