<svg xmlns="http://www.w3.org/2000/svg" width="283" height="34" viewBox="0 0 283 34"><g><g><g><g/><g/><g><path fill="#993921" d="M9.658 18.712L.402 30.861c-.66.909-.495 2.148.414 2.81.413.247 1.24.413 1.24.413h18.098c.66 0 1.24-.248 1.653-.827l10-12.975H26.6l-7.438 9.752h-3.884l7.438-9.752h-5.207l-7.438 9.752H6.27l7.52-9.752c-1.735.083-3.14-.578-4.132-1.57z"/></g><g><path fill="#d2451e" d="M23.046 14.58l-7.52-9.752h3.884l7.52 9.835h-3.884zm-9.09 0l-7.52-9.752h3.883l7.52 9.835h-3.883zm18.76.826l-10.661-13.8c-.496-.662-1.323-.91-2.066-.745C19.823.78 19.74.78 19.575.78H2.303C1.394.779.65 1.357.32 2.1c0 .083 0 .083-.083.165v1.075c0 .082 0 .082.083.165 0 .083 0 .083.082.165 0 .083.083.083.083.166.083.082.083.165.165.247l7.273 9.422s-.579-.661 1.405 1.818c.578.744 1.24 1.322 1.735 1.818 1.24.992 2.397 1.157 3.223 1.157H31.476c.66 0 2.892-.661 1.24-2.893z"/></g></g><g><g><g><path fill="#000" d="M55.36 25.24c-1.901.084-2.893.084-4.877.084v-5.372h4.876c1.405 0 2.397 1.074 2.397 2.644 0 1.488-.91 2.645-2.397 2.645zm-.662-15.949c1.322.083 2.232 1.157 2.232 2.562 0 1.405-.91 2.396-2.232 2.396-1.735 0-2.562-.082-4.215-.082V9.208c1.653 0 2.48.083 4.215.083zm8.926 13.719c0-2.728-1.24-4.876-3.058-6.199 1.405-1.322 2.231-3.14 2.231-5.371 0-4.794-3.636-8.017-8.099-8.182l-10.082-.413v28.594c4.297-.083 6.446-.165 10.743-.248 4.546-.083 8.265-3.306 8.265-8.181z"/></g><g><path fill="#000" d="M82.053 24.993v5.537c-5.785.165-8.678.248-14.463.33V4.747c2.232.165 3.389.165 5.62.248v20.082c3.554 0 5.29 0 8.843-.083z"/></g><g><path fill="#000" d="M94.449 21.191c1.157-3.553 1.736-5.371 2.893-8.925 1.156 3.636 1.735 5.372 2.892 8.925h-5.785zm7.52 5.124c.496 1.488.744 2.232 1.24 3.802 2.48-.083 3.719-.083 6.198-.165a1165.942 1165.942 0 0 1-8.43-23.884c-2.892-.083-4.297-.165-7.19-.248a1240.89 1240.89 0 0 0-8.429 24.71c2.48-.083 3.72-.083 6.199-.165.495-1.57.743-2.314 1.24-3.884 3.635-.083 5.536-.083 9.172-.166z"/></g><g><path fill="#000" d="M110.73 17.638c0-7.19 5.62-12.48 13.305-12.231 4.628.165 8.76 2.396 10.991 5.702-1.983.992-3.057 1.488-5.04 2.562-1.158-1.818-3.307-2.975-5.951-2.975-4.545-.083-7.438 2.644-7.438 6.942 0 4.297 2.893 7.107 7.438 7.107 2.562 0 4.876-1.157 5.95-2.892 1.984 1.074 3.058 1.57 5.041 2.561-2.231 3.306-6.28 5.455-10.991 5.62-7.686.165-13.305-5.206-13.305-12.396z"/></g><g><path fill="#000" d="M164.777 7.473c2.48-.083 3.72-.165 6.199-.248 1.735 5.95 2.644 8.925 4.462 15.04 1.984-6.115 2.975-9.172 4.959-15.453 1.9-.083 2.892-.083 4.793-.166a1814.68 1814.68 0 0 1 4.959 15.702c1.735-6.363 2.644-9.586 4.462-16.115 2.48-.082 3.72-.165 6.116-.248-2.314 7.769-4.71 15.537-7.108 23.223-2.644-.083-3.966-.083-6.694-.166-1.652-5.371-2.479-8.016-4.214-13.222a603.298 603.298 0 0 1-4.215 13.057c-2.645-.083-3.967-.083-6.694-.165-2.727-8.678-4.132-12.892-7.025-21.24z"/></g><g><path fill="#000" d="M214.363 24.91c-4.132-.082-7.438-2.975-7.438-7.19 0-4.297 3.223-7.19 7.438-7.272 4.132-.083 7.438 2.81 7.438 7.19 0 4.38-3.224 7.272-7.438 7.272zm-13.306-7.19c0 6.942 5.95 12.397 13.306 12.562 7.355.165 13.305-5.372 13.305-12.727 0-7.438-5.95-12.81-13.305-12.561-7.355.33-13.306 5.867-13.306 12.726z"/></g><g><path fill="#000" d="M243.287 25.24c-4.132-.082-7.437-3.14-7.437-7.685s3.223-7.686 7.437-7.768c4.132-.083 7.438 2.975 7.438 7.686 0 4.71-3.306 7.85-7.438 7.768zM229.9 17.556c0 7.438 5.95 13.306 13.306 13.47 7.355.166 13.305-5.701 13.305-13.635S250.56 3.67 243.205 3.92c-7.355.33-13.306 6.197-13.306 13.635z"/></g><g><path fill="#000" d="M270.146 25.076c-1.735-.083-2.645-.083-4.38-.083V9.622c1.735 0 2.645 0 4.38-.083 3.967-.165 6.777 2.81 6.777 7.686 0 4.876-2.728 7.933-6.777 7.85zm0-21.653l-10.248.414v27.106c4.133.083 6.116.165 10.248.248 7.107.165 12.479-5.867 12.479-13.966 0-8.1-5.372-14.132-12.479-13.802z"/></g><g><g><path fill="#000" d="M156.348 28.795c2.644-.083 3.967-.083 6.694-.166-3.636-4.215-5.372-6.446-9.008-10.909 3.47-4.214 5.206-6.28 8.677-10.247-2.644-.083-3.966-.165-6.694-.248-3.553 4.05-5.289 6.115-8.76 10.413 3.554 4.545 5.372 6.776 9.09 11.157z"/></g></g><g><path fill="#000" d="M144.447 29.125c-2.314.083-3.553.083-5.867.165V6.564c2.314.082 3.553.165 5.867.248v22.313z"/></g></g></g></g></g></svg>