<svg xmlns="http://www.w3.org/2000/svg" width="345" height="344" viewBox="0 0 345 344"><g><g><g/><g/><g><path fill="#f0f0f0" d="M100.096 185.02L4.602 310.354c-6.821 9.379-5.116 22.168 4.263 28.99 4.263 2.557 12.79 4.262 12.79 4.262h186.724c6.82 0 12.79-2.558 17.052-8.526L328.6 201.22h-53.716l-76.736 100.61h-40.073l76.736-100.61h-53.715l-76.736 100.61H65.138l77.589-100.61c-17.905.853-32.4-5.968-42.631-16.2z"/></g><g><path fill="#f0f0f0" d="M238.22 142.388l-77.588-100.61h40.073l77.589 101.463H238.22zm-93.788 0L66.843 41.778h40.074l77.588 101.463h-40.073zm193.546 8.526L227.989 8.526c-5.116-6.82-13.642-9.379-21.315-7.673C204.968 0 204.116 0 202.41 0H24.212C14.833 0 7.16 5.968 3.75 13.642c0 .853 0 .853-.853 1.705v11.084c0 .853 0 .853.853 1.706 0 .852 0 .852.853 1.705 0 .852.852.852.852 1.705.853.853.853 1.705 1.706 2.558l75.03 97.199s-5.968-6.82 14.495 18.758c5.968 7.673 12.79 13.642 17.905 18.757 12.79 10.232 24.726 11.937 33.252 11.937h177.346c6.821 0 29.842-6.82 12.79-29.842z"/></g></g></g></svg>