<svg xmlns="http://www.w3.org/2000/svg" width="27" height="27" viewBox="0 0 27 27"><g><g><g/><g/><g><path fill="#fff" d="M7.982 14.823l-7.215 9.47c-.516.71-.387 1.676.322 2.191.322.194.966.322.966.322h14.11c.515 0 .965-.193 1.288-.644l7.795-10.115h-4.059l-5.798 7.603h-3.028l5.798-7.603h-4.058L8.304 23.65H5.341l5.862-7.603c-1.353.065-2.448-.45-3.22-1.224z"/></g><g><path fill="#fff" d="M18.419 11.602L12.556 4h3.028l5.863 7.667h-3.028zm-7.087 0L5.47 4h3.028l5.862 7.667h-3.028zm14.625.644L17.646 1.488a1.58 1.58 0 0 0-1.61-.58c-.13-.065-.194-.065-.323-.065H2.248C1.54.843.96 1.294.702 1.874c0 .064 0 .064-.064.129V2.84c0 .065 0 .065.064.13 0 .064 0 .064.065.128 0 .065.064.065.064.129.064.064.064.129.129.193l5.67 7.345s-.452-.516 1.094 1.417c.451.58.967 1.03 1.353 1.417.967.773 1.869.902 2.513.902H24.99c.516 0 2.255-.515.967-2.255z"/></g></g></g></svg>