<svg xmlns="http://www.w3.org/2000/svg" width="228" height="74" viewBox="0 0 228 74"><g><g><g><g><g/><g/><g><path fill="#993921" d="M106.114 17.221l-8.864 11.65c-.633.887-.507 2.026.38 2.66l1.14.38h17.348c.633 0 1.266-.254 1.646-.76l9.623-12.41h-4.938l-7.091 9.37h-3.672l7.09-9.37h-4.938l-7.09 9.37h-3.673l7.218-9.37c-1.773 0-3.166-.507-4.18-1.52z"/></g><g><path fill="#d2451e" d="M118.903 13.17l-7.217-9.371h3.672l7.218 9.37zm-8.737 0l-7.218-9.371h3.672l7.218 9.37zm17.981.886L117.89.886c-.506-.633-1.266-.886-2.026-.76-.126 0-.253 0-.38-.126H99.023c-.887 0-1.52.507-1.9 1.266 0 .127 0 .127-.126.127v1.013c0 .127 0 .127.126.127 0 .126 0 .126.127.126 0 .127.127.127.127.127.126.126.126.126.126.253l6.965 8.99s-.507-.632 1.393 1.773c.506.634 1.013 1.14 1.646 1.773.886.76 1.9 1.14 3.039 1.14h16.461c.634.127 2.786-.507 1.14-2.66z"/></g></g><g><g><g><path fill="#fff" d="M12.536 65.593a2.27 2.27 0 0 1-2.28 2.28c-1.772.126-2.785.126-4.684.126v-5.192h4.938c1.266.127 2.153 1.267 2.026 2.533v.253zM5.572 52.55c1.52 0 2.406 0 4.052.127 1.266 0 2.279 1.14 2.152 2.406v.253c0 1.266-1.013 2.153-2.152 2.153-1.646 0-2.406-.127-4.052-.127zm12.662 13.17c0-2.406-1.013-4.559-3.039-5.825a7.388 7.388 0 0 0 2.153-5.192c0-4.559-3.419-7.724-7.724-7.85L0 46.472v27.35c4.052-.126 6.078-.126 10.257-.252 4.432-.127 7.977-3.166 7.977-7.851z"/></g><g><path fill="#fff" d="M35.836 67.62v5.317c-5.572.127-8.358.254-13.803.38V48.245c2.153.127 3.293.127 5.445.127v19.247c3.293.127 4.939.127 8.358 0z"/></g><g><path fill="#fff" d="M47.739 63.947c1.14-3.419 1.646-5.192 2.785-8.61 1.14 3.545 1.647 5.191 2.786 8.61zm7.09 4.938c.507 1.393.76 2.153 1.267 3.546 2.406 0 3.546 0 5.952-.127-2.786-7.597-5.445-15.195-8.105-22.92-2.659-.126-4.052-.126-6.838-.253-2.785 7.851-5.445 15.702-8.104 23.68 2.406 0 3.546 0 5.952-.127.38-1.393.633-2.152 1.14-3.672 3.418 0 5.191 0 8.737-.127z"/></g><g><path fill="#fff" d="M63.314 60.528c0-6.838 5.445-11.903 12.79-11.776 4.178 0 8.103 2.026 10.51 5.445-1.9 1.013-2.913 1.392-4.813 2.405-1.266-1.899-3.419-2.912-5.698-2.912-4.305-.127-7.091 2.533-7.091 6.711 0 4.179 2.786 6.838 7.091 6.838 2.28.127 4.432-.886 5.698-2.786a85.18 85.18 0 0 0 4.812 2.406c-2.152 3.166-6.078 5.192-10.51 5.445-7.47.254-12.79-4.812-12.79-11.776z"/></g><g><path fill="#fff" d="M115.104 50.778c2.406-.127 3.546-.127 5.825-.254 1.647 5.699 2.533 8.611 4.306 14.436 1.9-5.825 2.912-8.737 4.812-14.816 1.772-.126 2.785-.126 4.558-.126 1.9 5.951 2.913 8.99 4.812 15.069a974.42 974.42 0 0 1 4.305-15.449c2.406-.127 3.546-.127 5.825-.253a4874.995 4874.995 0 0 1-6.838 22.286c-2.532-.127-3.799-.127-6.458-.127-1.646-5.191-2.406-7.724-4.052-12.662-1.646 5.065-2.406 7.47-4.052 12.536-2.532-.127-3.799-.127-6.458-.127-2.532-8.484-3.925-12.41-6.585-20.513z"/></g><g><path fill="#fff" d="M169.681 60.528c0 4.179-3.166 6.964-7.091 6.964-3.926 0-7.091-2.785-7.091-6.837s3.039-6.838 7.09-6.965h.634c3.672 0 6.585 3.166 6.458 6.838zm-7.091 12.156h.633c6.711 0 12.156-5.445 12.156-12.156 0-7.091-5.698-12.283-12.79-12.03-7.09.254-12.789 5.572-12.789 12.157 0 6.584 5.699 11.903 12.79 12.03z"/></g><g><path fill="#fff" d="M197.412 60.401c0 4.559-3.165 7.471-7.09 7.471h-.254c-3.925-.126-6.965-3.419-6.838-7.344v-.38a7.08 7.08 0 0 1 7.091-7.091c3.926-.127 7.091 2.786 7.091 7.344zm-7.217 13.043c7.09.127 12.79-5.445 12.79-13.043 0-7.597-5.7-13.169-12.79-12.916-7.091.254-12.79 5.952-12.79 13.043 0 6.964 5.698 12.79 12.79 12.916z"/></g><g><path fill="#fff" d="M216.027 67.746c-1.646-.127-2.533-.127-4.179-.127V52.93c1.646 0 2.533 0 4.179-.126 3.799-.127 6.458 2.659 6.458 7.344 0 4.685-2.66 7.598-6.458 7.598zm0-20.767c-4.052.126-5.952.253-9.877.38v25.958c4.052.127 5.951.127 9.877.254 6.71.126 11.903-5.699 11.903-13.423s-5.192-13.422-11.903-13.17z"/></g><g><g><path fill="#fff" d="M107 71.291c2.533-.126 3.8-.126 6.458-.126-3.545-4.052-5.191-6.205-8.61-10.51 3.292-4.052 4.938-6.078 8.357-9.877-2.532-.127-3.799-.127-6.458-.254-3.419 3.926-5.065 5.825-8.357 10.004 3.292 4.432 5.065 6.585 8.61 10.763z"/></g></g><g><path fill="#fff" d="M95.604 71.545c-2.28.126-3.42.126-5.572.126v-21.78c2.28.127 3.42.127 5.572.254z"/></g></g></g></g></g></g></svg>