<svg xmlns="http://www.w3.org/2000/svg" width="37" height="36" viewBox="0 0 37 36"><defs><clipPath id="ou8ba"><path fill="#fff" d="M.406 17.98c0-9.931 8.06-17.981 18-17.981 9.941 0 18 8.05 18 17.98s-8.059 17.98-18 17.98c-9.94 0-18-8.05-18-17.98z"/></clipPath></defs><g><g opacity=".95"><g opacity=".95"><path fill="none" stroke="#fff" stroke-miterlimit="50" stroke-width="2" d="M.406 17.98c0-9.931 8.06-17.981 18-17.981 9.941 0 18 8.05 18 17.98s-8.059 17.98-18 17.98c-9.94 0-18-8.05-18-17.98z" clip-path="url(&quot;#ou8ba&quot;)"/></g><g opacity=".95"><g opacity=".95"><g opacity=".95"><path fill="#fff" d="M18.406 19.977l-1.732-1.514-4.952 4.24c.18.167.423.27.691.27H24.4c.267 0 .51-.103.688-.27l-4.949-4.24z"/></g><g opacity=".95"><path fill="#fff" d="M25.09 13.255a1.008 1.008 0 0 0-.69-.27H12.412c-.267 0-.509.104-.689.272l6.682 5.721z"/></g><g opacity=".95"><path fill="#fff" d="M11.406 13.862v8.299l4.833-4.103z"/></g><g opacity=".95"><path fill="#fff" d="M20.573 18.058l4.833 4.103v-8.302z"/></g></g></g></g></g></svg>