<svg xmlns="http://www.w3.org/2000/svg" width="37" height="36" viewBox="0 0 37 36"><defs><clipPath id="byo7a"><path fill="#fff" d="M.615 17.98c0-9.931 8.058-17.981 18-17.981 9.94 0 18 8.05 18 17.98s-8.06 17.98-18 17.98c-9.942 0-18-8.05-18-17.98z"/></clipPath></defs><g><g><g opacity=".95"><path fill="none" stroke="#fff" stroke-miterlimit="50" stroke-width="2" d="M.615 17.98c0-9.931 8.058-17.981 18-17.981 9.94 0 18 8.05 18 17.98s-8.06 17.98-18 17.98c-9.942 0-18-8.05-18-17.98z" clip-path="url(&quot;#byo7a&quot;)"/></g><g><path fill="#fff" d="M10 24.004a10.366 10.366 0 0 0 5.618 1.647c6.805 0 10.647-5.747 10.416-10.901a7.35 7.35 0 0 0 1.827-1.897 7.366 7.366 0 0 1-2.103.577 3.653 3.653 0 0 0 1.61-2.026 7.4 7.4 0 0 1-2.327.89 3.66 3.66 0 0 0-2.676-1.158c-2.365 0-4.104 2.206-3.567 4.5a10.415 10.415 0 0 1-7.555-3.831 3.67 3.67 0 0 0 1.136 4.893 3.635 3.635 0 0 1-1.662-.46c-.04 1.7 1.176 3.288 2.938 3.64a3.67 3.67 0 0 1-1.655.063 3.668 3.668 0 0 0 3.423 2.544A7.339 7.339 0 0 1 10 24.004z"/></g></g></g></svg>