<svg width="1605" height="504" viewBox="0 0 1605 504" fill="none" xmlns="http://www.w3.org/2000/svg">
<path fill-rule="evenodd" clip-rule="evenodd" d="M1548.3 119.6C1591.3 75 1604.2 33.4 1604.2 3.69995L1604.61 504H0.200012V0.699951C0.200012 33.4 13.1 72 60.4 116.6C81.9 137.4 112 158.2 155 179C284 250.4 249.7 229.5 249.7 229.5C249.7 229.5 542.1 390 688.3 461.3C727.7 482.5 768.3 492.9 808.2 492.9C846.7 492.9 884.6 483.3 920.5 464.3L1359.1 232.5C1359.1 232.5 1324.7 253.3 1453.7 182C1483.06 166.219 1507.47 148.711 1528.81 133.407C1535.6 128.54 1542.07 123.895 1548.3 119.6Z" fill="white"/>
</svg>
