<svg xmlns="http://www.w3.org/2000/svg" width="512" height="512" viewBox="0 0 512 512">
  <rect width="512" height="512" rx="96" fill="#141213"/>
  <g transform="translate(106 110) scale(2.565)" fill="#FC9B1E">
    <path d="M101.13,68.62l-25.51,32.25-14.09-.02,24.74-32.24h-14.19l-25.1,32.25-14.09-.02,25.03-32.24h-16.39L7.04,113.82h72.08c1.3,0,2.54-.6,3.34-1.63l34.19-43.57h-15.52Z"/>
    <path d="M71.9,0H0l42.1,55.9,74.85-.05L74.77,1.4c-.69-.89-1.74-1.4-2.87-1.4ZM51.18,45.5L24.89,11.11l13.52-.02,26.29,34.38-13.52.02ZM53.61,11.11l13.52-.02,26.29,34.38-13.52.02L53.61,11.11Z"/>
  </g>
</svg>
